PathFileType	4	(X/Y/Z)	56_2_37_p1_0-261_filt_butterworth.trc
DataRate	CameraRate	NumFrames	NumMarkers	Units	OrigDataRate	OrigDataStartFrame	OrigNumFrames
60.0	60.0	5	27	m	60.0	163	261
Frame#	Time	RHip			RKnee			RAnkle			RBigToe			RSmallToe			RHeel			LHip			LKnee			LAnkle			LBigToe			LSmallToe			LHeel			Neck			Head			Nose			RShoulder			RElbow			RWrist			RThumb			RIndex			RPinky			LShoulder			LElbow			LWrist			LThumb			LIndex			LPinky			
		X1	Y1	Z1	X2	Y2	Z2	X3	Y3	Z3	X4	Y4	Z4	X5	Y5	Z5	X6	Y6	Z6	X7	Y7	Z7	X8	Y8	Z8	X9	Y9	Z9	X10	Y10	Z10	X11	Y11	Z11	X12	Y12	Z12	X13	Y13	Z13	X14	Y14	Z14	X15	Y15	Z15	X16	Y16	Z16	X17	Y17	Z17	X18	Y18	Z18	X19	Y19	Z19	X20	Y20	Z20	X21	Y21	Z21	X22	Y22	Z22	X23	Y23	Z23	X24	Y24	Z24	X25	Y25	Z25	X26	Y26	Z26	X27	Y27	Z27	
163	2.716666666666667	0.4849856566212054	0.7242066167299763	0.3021894365858943	0.49560215432613425	0.8597964334000083	0.6627947971256521	0.509086128260592	1.0912659225116434	1.0621765905985563	0.42524127798112565	0.8936404411745723	1.1447724799645072	0.5029147053026296	0.9127190142723657	1.152105950807465	0.5081743572984962	1.1634482452924622	1.0956576683467631	0.28966943579105414	0.7910281096592635	0.29767465073324356	0.30818852519289297	0.9432167964864486	0.6549929989981229	0.3245087923588714	1.090104386764961	1.0060151001232767	0.26421676425216356	0.912167335041888	1.115571742231866	0.2240243692609299	0.9844299201272858	1.11244912688918	0.3537080844442879	1.1530401301338276	1.0518758562917825	0.3547630546549222	0.5319969307239644	-0.1776863595267498	0.33430026798562584	0.38264618740932954	-0.4078507601624484	0.32623425204000467	0.3593931947398701	-0.23359346847673496	0.5304833478543934	0.5345184643500119	-0.11682675157501002	0.5839949689168512	0.6500427708722512	0.1386677873695995	0.5799817933817931	0.6323887632258034	0.4049071127275043	0.5235947536756493	0.6741565538876995	0.5114412003539596	0.542200171457341	0.671353281410172	0.523666570469236	0.5922640832215735	0.7304168567702208	0.5237227629758452	0.2076223358116857	0.6214382756220209	-0.15156216896993957	0.181310008573596	0.7749858638934257	0.10548916209644554	0.16446249112349662	0.8510101703687226	0.3383161726470829	0.20135119459706546	0.8748861159021468	0.43776041225475304	0.1720108876603319	0.8975256509326534	0.4595739369417153	0.15504208035616934	0.8943483609335074	0.44400324563281945
164	2.7333333333333334	0.48502292645666584	0.7238296669949672	0.30266971807135196	0.49643471966488195	0.8613084627735859	0.6629070378490809	0.5086718379161935	1.0917224096917617	1.0627674698257867	0.4252368963247643	0.8936922363774675	1.144769582977375	0.5030089701546231	0.912716663651026	1.152223199452243	0.5078656319766209	1.163549963295305	1.095699498589232	0.2916774003625071	0.7949664570885502	0.29833186829138725	0.30807461502416233	0.9430914556685943	0.6549625977824288	0.32451567156633476	1.0901407910010426	1.005998810534568	0.26486881769269466	0.9136813385955708	1.1160147578852766	0.22405678631902898	0.9846190587400423	1.1124675865759126	0.35394660726822336	1.1534271847783735	1.051657816581027	0.3555194913321192	0.5339380277942524	-0.17818939016212937	0.3342757886877643	0.38222291041229545	-0.4077473030734166	0.326170971169166	0.35792107707279536	-0.23366090321550917	0.5304667504791536	0.5345152063794255	-0.1167860564512247	0.5855855985075997	0.6502418469218156	0.13847644382676005	0.5813944597961235	0.6289802263126265	0.40448080700242817	0.5240103698600723	0.674052969731455	0.5110060005395184	0.5422276619575764	0.6714542606740086	0.5237424711686701	0.5944877885662856	0.7334202904935814	0.5239168531589253	0.2081514503557923	0.6226098489310576	-0.1513328507302248	0.1812804375381854	0.7763051537493764	0.10529451930963002	0.16449903740921937	0.8511159250234297	0.33827355204761833	0.20208767407365535	0.8704654970645034	0.4376354742373233	0.17189174318857928	0.8971760210775105	0.4591864542443676	0.15498872835770028	0.8946905867000201	0.4441296217594612
165	2.75	0.4850043986724496	0.7234663382611939	0.30472413501418716	0.4985124498088311	0.8649442644434922	0.6633744740869649	0.5082654351619144	1.090529593890986	1.0614078521637773	0.4252549576627838	0.8937626595639429	1.1448026968587977	0.5030038404749889	0.9113355328538941	1.152289158114857	0.5078261900490865	1.1635797286710958	1.095639738608869	0.2940978415705453	0.8000680774076566	0.2997307287016969	0.30797139723042233	0.9427797376775916	0.6549192390191021	0.32451395492936086	1.090184145594728	1.006000293653081	0.2649222325349425	0.9139531634411704	1.1161214624013118	0.2240456328864698	0.984535554341642	1.1125124543585094	0.35410058813199785	1.1536424750956518	1.0514820320022338	0.3572981206895224	0.5359265063615111	-0.17978495382760407	0.33424911353808995	0.38226100189582624	-0.40775224502483787	0.3254311291442445	0.3571532131789574	-0.23427837638740626	0.5304759672522651	0.5345551646052605	-0.11670878338958707	0.5868066399199405	0.6507072943879836	0.13846113893362683	0.5837854673598618	0.6300582531875829	0.40342460147292025	0.5239699442348927	0.6722089063264022	0.5104371476842265	0.5421953252158731	0.671241705208041	0.5237922685876604	0.597692449957198	0.7375613756659221	0.5241190988328945	0.20961873425919234	0.6251497033986321	-0.1520309521988165	0.1812795119230345	0.7773203506553538	0.10507886230471933	0.16456804487376084	0.851177689285541	0.3382129422297903	0.20247460813288898	0.8673626734217658	0.4374987028497023	0.1720325120457396	0.8965556660575393	0.45839975935640814	0.1549649027569222	0.8948578256052747	0.4445384104620589
166	2.7666666666666666	0.4850218766182399	0.7232474100225138	0.30718407980085694	0.5012525243159586	0.8695485776360616	0.6642487757723275	0.5080775613039457	1.0875067976026225	1.0582230234380205	0.4253459073828728	0.8938732960024826	1.1448792106790417	0.5035911566003697	0.9105621172174434	1.1524230406512752	0.508066604198715	1.1634949375560004	1.0953686212992773	0.2959871965390214	0.804363757705845	0.30159581462564916	0.3082872865401557	0.9424212784965879	0.6548973129435525	0.32447743913553395	1.0901877815194447	1.006038862884309	0.26488849251632085	0.9139751339820702	1.1161619981976998	0.22399515723412577	0.9842879075177285	1.1125893016203	0.35412745890189734	1.1536101369680052	1.0514204949943668	0.3596394012523393	0.5382712466033225	-0.18316479882371364	0.33425670357328613	0.38360462151924835	-0.40826896307975646	0.32371063479853285	0.35739540538166886	-0.23522181888632226	0.5304852458467707	0.53456313384832	-0.11661393087458503	0.5873231398854409	0.6508077293644419	0.13851479926379603	0.5866705469487552	0.6338945093000832	0.4020652599426386	0.5239873215709598	0.6675215391581055	0.5097675209472409	0.5418538689487186	0.6693678572302788	0.5237390095075338	0.6007955005323002	0.7410108272581233	0.5241862913102022	0.21175113706862886	0.6285079282705865	-0.15358124974869886	0.18126174009773355	0.7777055381949263	0.10497891272760507	0.1646481721764474	0.8510212975224682	0.3381825472855089	0.20215072982502305	0.8637358265053986	0.43766911622271154	0.17281813446933403	0.8959114032080301	0.4576823938894778	0.1550133873344849	0.8947518497386515	0.44556220051879003
167	2.783333333333333	0.4851211622133943	0.7233462441045064	0.3087828603845356	0.5033275597518315	0.8728946622555949	0.6653628343323708	0.5080901787027301	1.082330824792532	1.0544355650284047	0.4255092254939593	0.8939648393578462	1.1449609156409168	0.5052875816338717	0.9108966715557677	1.1525622594778127	0.5085811413761171	1.1633496954943352	1.0949241803487424	0.2968619697682035	0.8066060339986355	0.30313094779252164	0.3094862350949966	0.9425024001104203	0.6549997899950872	0.32439251646851935	1.0901225671870158	1.0061259412450105	0.2647543593564967	0.913738137675304	1.116114348027411	0.2239421481613083	0.9840743818670575	1.1126943377720546	0.35406525812410106	1.1534427111780223	1.0515467564529255	0.36160952092606935	0.5425278232107327	-0.18778722843679663	0.33432570609838086	0.38678740117768834	-0.4095569997162203	0.3215671878255126	0.35911576458121197	-0.23671461865933113	0.5304895439171183	0.5345259565942351	-0.11654074134519016	0.5871604867505027	0.6492766966026412	0.13874238316516663	0.5888424938690566	0.6371385563085893	0.40107551236575656	0.5247171901601603	0.6612782214836207	0.5089784459907665	0.5412573668483729	0.66514039001991	0.5235853166089723	0.6032271623400992	0.7428315734929986	0.524085026166803	0.2135542222958366	0.6311291302990498	-0.15534951512343997	0.181184933542578	0.7776131692949624	0.10501021141414954	0.16470493559972274	0.850663059743596	0.3381828715702081	0.20163701731771266	0.8591894447560471	0.4382656328054686	0.17451602883459183	0.8956498639179226	0.45767950147932895	0.15512269250410055	0.894450146512457	0.44690922549734347
